<svg width="685" height="576" viewBox="0 0 685 576" fill="none" xmlns="http://www.w3.org/2000/svg">
<path d="M433.801 278.779C485.072 227.517 485.072 144.404 433.801 93.142C382.53 41.8798 299.403 41.8798 248.132 93.142C196.861 144.404 196.861 227.517 248.132 278.779C299.403 330.041 382.53 330.041 433.801 278.779Z" fill="#FBB667"/>
<path opacity="0.8" d="M185.634 197.228C181.723 190.136 174.189 185.343 165.527 185.343C162.235 185.343 159.098 186.049 156.27 187.287C154.966 179.157 147.918 172.949 139.411 172.949C136.87 172.949 134.484 173.502 132.318 174.496C129.844 168.156 123.701 163.649 116.476 163.649C107.329 163.649 99.8608 170.873 99.5073 179.93C96.3698 181.256 93.6079 183.266 91.3542 185.762C89.697 181.764 85.742 178.958 81.1462 178.958C76.3516 178.958 72.2861 182.007 70.7394 186.27C68.1985 184.923 65.3041 184.15 62.2107 184.15C53.9251 184.15 46.9651 189.65 44.7114 197.206H185.634V197.228Z" fill="#F1F2F2"/>
<path d="M552.324 431.572C519.248 416.594 482.283 412.043 445.98 412.706C371.653 414.076 298.761 436.498 224.433 436.101C197.344 435.946 169.88 432.787 143.366 438.464C109.693 445.666 66.8728 476.793 49.6165 506.594H627.425C614.301 472.75 585.378 446.528 552.324 431.572Z" fill="#FFEDC5"/>
<path d="M296.861 242.404C296.861 242.404 297.811 222.213 271.275 212.449C271.275 212.449 273.153 211.985 278.345 213.067C278.345 213.067 231.768 185.917 202.934 235.203C202.934 235.203 212.06 190.689 270.236 190.004C270.236 190.004 259.984 172.331 227.482 179.29C227.482 179.29 229.36 176.572 234.729 175.379C234.729 175.379 198.14 176.793 198.162 231.248C195.82 175.954 145.355 183.641 145.355 183.641C149.928 184.614 152.049 188.192 152.049 188.192C118.907 184.702 110.312 208.759 110.312 208.759C170.631 187.596 194.096 234.496 194.096 234.496C164.666 198.796 131.015 216.381 131.015 216.381C135.787 215.122 138.174 217.176 138.174 217.176C105.141 226.896 99.9492 260.939 99.9492 260.939C144.581 218.391 193.5 241.587 193.5 241.587C144.184 233.347 124.519 272.559 124.519 272.559C128.606 268.317 133.357 267.588 133.357 267.588C106.092 305.166 143.057 335.85 143.057 335.85C127.303 267.655 193.5 247.397 193.5 247.397C193.5 247.397 175.912 292.971 206.624 376.167C223.814 422.735 230.2 450.747 230.2 471.248L263.055 465.062C263.055 465.062 225.891 389.886 213.297 362.846C190.561 314.046 193.986 262.971 199.311 247.419C199.311 247.419 265.817 250.976 264.359 326.815C264.359 326.815 289.326 301.962 274.456 273.155C274.456 273.155 279.405 273.443 282.366 279.584C282.366 279.584 277.351 229.967 201.984 242.382C201.962 242.404 251.787 211.366 296.861 242.404Z" fill="#0F214F"/>
<path d="M415.224 271.366C415.224 271.366 414.473 255.328 435.529 247.574C435.529 247.574 434.049 247.22 429.917 248.082C429.917 248.082 466.904 226.543 489.773 265.644C489.773 265.644 482.526 230.298 436.347 229.768C436.347 229.768 444.478 215.74 470.285 221.263C470.285 221.263 468.805 219.098 464.54 218.148C464.54 218.148 493.573 219.275 493.573 262.507C495.429 218.612 535.51 224.709 535.51 224.709C531.864 225.482 530.207 228.332 530.207 228.332C556.5 225.571 563.349 244.658 563.349 244.658C515.469 227.868 496.843 265.092 496.843 265.092C520.198 236.749 546.911 250.711 546.911 250.711C543.11 249.694 541.232 251.351 541.232 251.351C567.459 259.083 571.569 286.101 571.569 286.101C536.128 252.323 497.307 270.747 497.307 270.747C536.46 264.208 552.059 295.335 552.059 295.335C548.811 291.977 545.055 291.381 545.055 291.381C566.708 321.226 537.344 345.571 537.344 345.571C549.849 291.447 497.307 275.342 497.307 275.342C497.307 275.342 520.065 324.495 493.396 386.373C477.797 422.559 479.454 442.043 471.898 468.818L442.047 463.737C442.047 463.737 464.231 421.609 484.249 381.867C511.271 328.251 496.91 287.714 492.689 275.365C492.689 275.365 439.882 278.192 441.053 338.391C441.053 338.391 421.234 318.663 433.033 295.799C433.033 295.799 429.1 296.042 426.758 300.902C426.758 300.902 430.735 261.513 490.568 271.366C490.568 271.366 451.018 246.734 415.224 271.366Z" fill="#0F214F"/>
<path d="M59.3162 118.03C59.3162 118.03 49.727 95.5636 24.0967 117.942C24.0967 117.942 33.1557 96.9995 53.7483 105.041C55.781 84.3412 80.4613 84.3412 80.4613 84.3412C72.507 87.5224 66.4088 92.1173 63.2713 96.9111C56.5765 107.051 59.3162 118.03 59.3162 118.03Z" fill="#0F214F"/>
<path d="M219.02 30.0629C219.02 30.0629 219.042 -0.00327268 179.138 5.65209C179.138 5.65209 203.376 -10.6954 220.014 12.2132C236.519 -8.72932 263.121 8.30304 263.121 8.30304C252.339 6.24856 242.75 7.37521 235.878 10.0041C219.55 16.2338 219.02 30.0629 219.02 30.0629Z" fill="#0F214F"/>
<path d="M345.691 122.272C345.691 122.272 346.044 106.609 325.165 112.883C325.165 112.883 335.991 103.053 345.89 113.215C352.562 101.661 366.968 108.2 366.968 108.2C361.467 107.957 356.716 109.017 353.601 110.983C346.994 115.136 345.691 122.272 345.691 122.272Z" fill="#0F214F"/>
<path d="M455.592 31.3221C455.592 31.3221 470.793 12.655 439.529 0.548941C439.529 0.548941 461.955 -1.15208 464.364 20.4974C483.365 12.7875 494.678 34.3044 494.678 34.3044C488.248 28.8258 481.465 25.6225 475.831 25.0703C463.922 23.8994 455.592 31.3221 455.592 31.3221Z" fill="#0F214F"/>
<path d="M621.393 180.438C621.393 180.438 620.664 166.543 604.8 169.128C604.8 169.128 614.897 163.649 620.355 168.642C621.68 169.857 622.608 171.359 623.095 173.148C628.552 163.207 642.141 171.315 642.141 171.315C627.293 168.045 621.393 180.438 621.393 180.438Z" fill="#0F214F"/>
<path d="M644.549 47.0511C644.549 47.0511 659.596 26.7493 634.407 12.0585C634.407 12.0585 654.89 16.0571 656.746 29.356C657.188 32.6034 656.746 35.7625 655.398 38.8332C674.532 31.2117 684.166 58.2735 684.166 58.2735C667.108 36.5136 644.549 47.0511 644.549 47.0511Z" fill="#0F214F"/>
<path opacity="0.8" d="M501.064 149.312C500.489 144.717 496.578 141.16 491.828 141.16C491.828 133.98 485.995 128.148 478.814 128.148C474.947 128.148 471.478 129.827 469.092 132.5C468.031 132.235 466.949 132.08 465.8 132.08C465.667 132.08 465.535 132.08 465.402 132.08C463.811 126.624 458.751 122.625 452.786 122.625C445.516 122.625 439.639 128.502 439.639 135.77C439.639 135.88 439.639 136.013 439.639 136.123C438.822 135.902 437.96 135.77 437.076 135.77C435.927 135.77 434.845 135.969 433.828 136.344C432.193 133.627 429.232 131.815 425.83 131.815C422.626 131.815 419.798 133.428 418.119 135.902C417.588 135.814 417.058 135.77 416.506 135.77C411.357 135.77 407.181 139.945 407.181 145.092C407.181 145.247 407.181 145.379 407.181 145.534C405.966 145.158 404.685 144.96 403.337 144.96C399.448 144.96 395.979 146.639 393.571 149.312H501.064Z" fill="#F1F2F2"/>
<path opacity="0.8" d="M58.0347 46.6093C56.709 44.2014 54.146 42.5666 51.1853 42.5666C50.0584 42.5666 48.9978 42.8096 48.0257 43.2293C47.5838 40.4679 45.1754 38.3472 42.2809 38.3472C41.4192 38.3472 40.6017 38.546 39.8505 38.8773C39.0109 36.7124 36.9118 35.1881 34.4593 35.1881C31.3439 35.1881 28.8029 37.6623 28.6704 40.733C27.6098 41.1748 26.6597 41.8597 25.8864 42.7212C25.3119 41.3516 23.9641 40.4016 22.4174 40.4016C20.7824 40.4016 19.3904 41.4399 18.8822 42.898C18.0205 42.434 17.0262 42.1689 15.9657 42.1689C13.1375 42.1689 10.7733 44.0467 10 46.6314H58.0347V46.6093Z" fill="#F1F2F2"/>
<path opacity="0.8" d="M208.524 114.319C209.099 111.756 211.375 109.857 214.114 109.857C215.727 109.857 217.208 110.541 218.246 111.624C220.014 110.1 222.201 109.106 224.632 108.818C224.809 104.091 228.697 100.313 233.492 100.313C234.354 100.313 235.193 100.446 235.967 100.667C237.359 97.618 240.43 95.4973 243.987 95.4973C248.848 95.4973 252.803 99.4516 252.803 104.312C252.803 104.997 252.715 105.637 252.582 106.278C254.151 106.521 255.609 107.051 256.891 107.846C258.415 106.764 260.293 106.145 262.304 106.145C265.817 106.145 268.866 108.067 270.501 110.895C271.429 110.254 272.556 109.879 273.749 109.879C276.489 109.879 278.765 111.801 279.339 114.341H208.524V114.319Z" fill="#F1F2F2"/>
<path d="M331.97 575.673C445.395 575.673 537.344 574.259 537.344 572.514C537.344 570.77 445.395 569.355 331.97 569.355C218.545 569.355 126.596 570.77 126.596 572.514C126.596 574.259 218.545 575.673 331.97 575.673Z" fill="#4B4B4B"/>
<path d="M247.5 453.928C247.5 453.928 247.125 456.292 247.5 458.236C247.81 459.893 249.599 462.875 249.599 462.875C249.732 463.163 250.152 463.074 250.152 462.765C250.152 460.931 249.864 457.352 248.053 453.818C247.92 453.553 247.5 453.641 247.5 453.928Z" fill="#808285"/>
<path d="M247.522 465.04C247.39 464.775 247.036 464.731 246.837 464.93L246.815 458.81L247.478 458.855L247.522 465.04Z" fill="#808285"/>
<path d="M248.119 466.542C247.014 467.073 246.263 466.542 246.263 466.542L246.749 465.084C246.771 465.018 246.793 464.974 246.837 464.93C247.036 464.731 247.39 464.775 247.522 465.04C247.522 465.04 247.522 465.062 247.544 465.062L248.119 466.542Z" fill="#6D6E71"/>
<path d="M247.589 457.595L246.44 458.214C246.152 458.369 246.241 458.788 246.594 458.81L247.898 458.877C247.876 458.899 248.185 458.391 247.589 457.595Z" fill="#6D6E71"/>
<path d="M508.642 547.905H496.865L508.841 543.796L508.642 547.905Z" fill="#0F214F"/>
<path d="M163.45 538.361L157.573 524.775C156.954 523.317 154.767 523.405 154.281 524.908C152.911 529.039 151.077 535.6 150.591 542.006C150.171 547.463 154.634 552.146 160.357 552.146C160.799 552.146 161.13 551.815 161.153 551.395L161.197 546.645L163.45 538.361Z" fill="#0F214F"/>
<path d="M182.85 542.072L174.034 551.483C173.106 552.477 171.736 553.008 170.344 552.941L165.306 552.676C161.506 552.477 158.545 549.473 158.545 545.85V542.072L160.865 539.289H169.173L182.828 536.616V542.072H182.85Z" fill="#0F214F"/>
<path d="M191.136 532.905C191.136 550.003 205.608 563.832 223.461 563.832C234.95 563.832 245.026 558.089 250.77 549.451C249.4 548.877 248.296 547.794 247.743 546.402C245.755 541.454 242.065 532.706 239.546 529.569C235.944 525.106 225.449 515.099 209.298 515.364C204.768 515.43 200.084 515.762 195.533 517.308C192.726 521.859 191.136 527.205 191.136 532.905Z" fill="#0F214F"/>
<path d="M178.873 542.316C178.873 559.414 193.345 573.265 211.198 573.265C229.051 573.265 243.523 559.414 243.523 542.316C243.523 525.217 229.051 511.388 211.198 511.388C201.056 511.388 191.997 515.872 186.076 522.875C182.275 527.36 179.779 532.883 179.072 538.913C178.939 540.018 178.873 541.167 178.873 542.316Z" fill="#0F214F"/>
<path d="M211.198 569.311C226.769 569.311 239.391 557.225 239.391 542.316C239.391 527.406 226.769 515.32 211.198 515.32C195.627 515.32 183.005 527.406 183.005 542.316C183.005 557.225 195.627 569.311 211.198 569.311Z" fill="#E6E7E8"/>
<path d="M211.198 563.545C223.45 563.545 233.381 554.04 233.381 542.316C233.381 530.591 223.45 521.086 211.198 521.086C198.946 521.086 189.014 530.591 189.014 542.316C189.014 554.04 198.946 563.545 211.198 563.545Z" fill="#797471"/>
<path d="M211.198 561.027C221.997 561.027 230.752 552.65 230.752 542.316C230.752 531.982 221.997 523.604 211.198 523.604C200.399 523.604 191.644 531.982 191.644 542.316C191.644 552.65 200.399 561.027 211.198 561.027Z" fill="#605C57"/>
<path d="M196.571 542.316C196.571 550.047 203.133 556.321 211.198 556.321C219.285 556.321 225.825 550.047 225.825 542.316C225.825 541.388 225.737 540.482 225.56 539.62C224.234 533.17 218.313 528.31 211.198 528.31C204.083 528.31 198.162 533.17 196.836 539.62C196.659 540.482 196.571 541.388 196.571 542.316Z" fill="#757475"/>
<path d="M196.836 539.62C200.791 542.625 205.763 544.414 211.198 544.414C216.633 544.414 221.605 542.625 225.56 539.62C224.234 533.17 218.313 528.31 211.198 528.31C204.083 528.31 198.162 533.17 196.836 539.62Z" fill="white"/>
<path d="M189.677 542.316C189.677 530.961 199.333 521.704 211.198 521.704C223.063 521.704 232.718 530.938 232.718 542.316C232.718 553.67 223.063 562.927 211.198 562.927C199.333 562.927 189.677 553.67 189.677 542.316ZM190.163 542.316C190.163 553.427 199.598 562.441 211.198 562.441C222.798 562.441 232.232 553.405 232.232 542.316C232.232 531.204 222.798 522.19 211.198 522.19C199.598 522.19 190.163 531.226 190.163 542.316Z" fill="#605C57"/>
<path d="M188.771 542.316C188.771 530.475 198.825 520.843 211.198 520.843C223.571 520.843 233.624 530.475 233.624 542.316C233.624 554.157 223.571 563.788 211.198 563.788C198.847 563.788 188.771 554.157 188.771 542.316ZM189.28 542.316C189.28 553.891 199.112 563.302 211.22 563.302C223.306 563.302 233.16 553.891 233.16 542.316C233.16 530.74 223.328 521.329 211.22 521.329C199.112 521.329 189.28 530.74 189.28 542.316Z" fill="#605C57"/>
<path d="M209.143 526.277H213.805C213.916 526.277 214.004 526.189 214.004 526.078V524.908C214.004 524.797 213.916 524.709 213.805 524.709H209.143C209.033 524.709 208.944 524.797 208.944 524.908V526.078C208.944 526.189 209.033 526.277 209.143 526.277Z" fill="#0F214F"/>
<path d="M197.455 532.949L200.482 529.746C200.592 529.635 200.57 529.458 200.46 529.37L199.642 528.663C199.532 528.575 199.355 528.575 199.245 528.685L196.217 531.888C196.107 531.999 196.129 532.176 196.24 532.264L197.057 532.971C197.168 533.081 197.344 533.059 197.455 532.949Z" fill="#0F214F"/>
<path d="M194.45 544.282V539.841C194.45 539.731 194.361 539.642 194.251 539.642H192.992C192.881 539.642 192.793 539.731 192.793 539.841V544.282C192.793 544.392 192.881 544.481 192.992 544.481H194.251C194.361 544.481 194.45 544.392 194.45 544.282Z" fill="#0F214F"/>
<path d="M200.769 554.996L197.587 551.947C197.477 551.837 197.3 551.837 197.19 551.947L196.416 552.698C196.306 552.809 196.306 552.964 196.416 553.074L199.598 556.123C199.708 556.233 199.885 556.233 199.996 556.123L200.769 555.371C200.88 555.283 200.88 555.106 200.769 554.996Z" fill="#0F214F"/>
<path d="M213.275 558.354H208.613C208.502 558.354 208.414 558.442 208.414 558.553V559.723C208.414 559.834 208.502 559.922 208.613 559.922H213.275C213.385 559.922 213.474 559.834 213.474 559.723V558.553C213.474 558.442 213.385 558.354 213.275 558.354Z" fill="#0F214F"/>
<path d="M224.455 552.323L221.273 555.371C221.163 555.482 221.163 555.637 221.273 555.747L222.047 556.498C222.157 556.609 222.334 556.609 222.444 556.498L225.626 553.45C225.737 553.339 225.737 553.184 225.626 553.074L224.853 552.323C224.742 552.212 224.565 552.212 224.455 552.323Z" fill="#0F214F"/>
<path d="M227.968 540.349V544.79C227.968 544.9 228.057 544.989 228.167 544.989H229.426C229.537 544.989 229.625 544.9 229.625 544.79V540.349C229.625 540.239 229.537 540.151 229.426 540.151H228.167C228.057 540.151 227.968 540.239 227.968 540.349Z" fill="#0F214F"/>
<path d="M221.649 529.635L224.831 532.684C224.941 532.794 225.118 532.794 225.228 532.684L226.002 531.933C226.112 531.822 226.112 531.668 226.002 531.557L222.82 528.509C222.71 528.398 222.533 528.398 222.422 528.509L221.649 529.26C221.538 529.348 221.538 529.525 221.649 529.635Z" fill="#0F214F"/>
<path d="M211.198 546.955C213.87 546.955 216.037 544.878 216.037 542.316C216.037 539.753 213.87 537.676 211.198 537.676C208.525 537.676 206.359 539.753 206.359 542.316C206.359 544.878 208.525 546.955 211.198 546.955Z" fill="#E6E7E8"/>
<path d="M211.198 546.579C213.651 546.579 215.639 544.67 215.639 542.316C215.639 539.961 213.651 538.052 211.198 538.052C208.745 538.052 206.757 539.961 206.757 542.316C206.757 544.67 208.745 546.579 211.198 546.579Z" fill="#6D6E71"/>
<path d="M176.332 537.566L179.072 538.891C179.779 532.838 182.275 527.338 186.076 522.853C182.474 526.145 179.16 530.828 176.332 537.566Z" fill="#0F214F"/>
<path d="M408.286 550.069C414.031 558.619 424.062 564.274 435.485 564.274C453.338 564.274 467.81 550.423 467.81 533.324C467.81 525.968 465.115 519.208 460.629 513.884C456.674 512.669 452.101 511.984 446.842 512.006C439.772 512.028 420.394 516.579 411.932 547.529C411.777 548.103 411.468 548.611 411.048 549.031C410.407 549.672 409.501 550.047 408.529 550.047H408.286V550.069Z" fill="#0F214F"/>
<path d="M411.07 549.053L417.522 551.307H478.814C482.327 551.726 487.033 551.307 487.033 551.307C487.033 551.307 486.79 541.476 481.686 531.668C476.56 521.815 466.507 511.962 446.864 512.028C439.794 512.05 420.416 516.601 411.954 547.551C411.777 548.126 411.49 548.634 411.07 549.053Z" fill="#0F214F"/>
<path d="M415.732 542.757C415.732 559.856 430.205 573.707 448.057 573.707C465.91 573.707 480.383 559.856 480.383 542.757C480.383 525.659 465.91 511.83 448.057 511.83C437.916 511.83 428.857 516.314 422.935 523.317C419.135 527.802 416.638 533.324 415.931 539.355C415.799 540.482 415.732 541.609 415.732 542.757Z" fill="#0F214F"/>
<path d="M448.057 569.753C463.628 569.753 476.251 557.666 476.251 542.757C476.251 527.848 463.628 515.762 448.057 515.762C432.487 515.762 419.864 527.848 419.864 542.757C419.864 557.666 432.487 569.753 448.057 569.753Z" fill="#E6E7E8"/>
<path d="M448.057 563.987C460.309 563.987 470.241 554.482 470.241 542.757C470.241 531.033 460.309 521.528 448.057 521.528C435.806 521.528 425.874 531.033 425.874 542.757C425.874 554.482 435.806 563.987 448.057 563.987Z" fill="#797471"/>
<path d="M448.057 561.469C458.857 561.469 467.612 553.091 467.612 542.757C467.612 532.423 458.857 524.046 448.057 524.046C437.258 524.046 428.503 532.423 428.503 542.757C428.503 553.091 437.258 561.469 448.057 561.469Z" fill="#605C57"/>
<path d="M433.408 542.757C433.408 550.489 439.971 556.763 448.035 556.763C456.122 556.763 462.662 550.489 462.662 542.757C462.662 541.83 462.574 540.924 462.397 540.062C461.071 533.612 455.15 528.751 448.035 528.751C440.921 528.751 434.999 533.612 433.673 540.062C433.519 540.946 433.408 541.83 433.408 542.757Z" fill="#757475"/>
<path d="M433.696 540.062C437.651 543.067 442.622 544.856 448.057 544.856C453.493 544.856 458.464 543.067 462.419 540.062C461.094 533.612 455.172 528.751 448.057 528.751C440.943 528.751 434.999 533.612 433.696 540.062Z" fill="white"/>
<path d="M426.537 542.757C426.537 531.402 436.192 522.146 448.057 522.146C459.922 522.146 469.578 531.38 469.578 542.757C469.578 554.112 459.922 563.369 448.057 563.369C436.192 563.369 426.537 554.134 426.537 542.757ZM427.023 542.757C427.023 553.869 436.457 562.883 448.057 562.883C459.657 562.883 469.092 553.847 469.092 542.757C469.092 531.668 459.657 522.632 448.057 522.632C436.457 522.632 427.023 531.668 427.023 542.757Z" fill="#605C57"/>
<path d="M425.631 542.757C425.631 530.916 435.684 521.285 448.057 521.285C460.43 521.285 470.484 530.916 470.484 542.757C470.484 554.598 460.43 564.23 448.057 564.23C435.684 564.23 425.631 554.598 425.631 542.757ZM426.117 542.757C426.117 554.333 435.949 563.744 448.057 563.744C460.143 563.744 469.998 554.333 469.998 542.757C469.998 531.182 460.165 521.771 448.057 521.771C435.949 521.771 426.117 531.182 426.117 542.757Z" fill="#605C57"/>
<path d="M445.98 526.719H450.642C450.753 526.719 450.841 526.631 450.841 526.52V525.349C450.841 525.239 450.753 525.151 450.642 525.151H445.98C445.87 525.151 445.781 525.239 445.781 525.349V526.52C445.781 526.631 445.87 526.719 445.98 526.719Z" fill="#0F214F"/>
<path d="M434.292 533.413L437.319 530.209C437.43 530.099 437.408 529.922 437.297 529.834L436.48 529.127C436.369 529.039 436.192 529.039 436.082 529.149L433.055 532.352C432.944 532.463 432.966 532.639 433.077 532.728L433.894 533.435C434.027 533.523 434.204 533.523 434.292 533.413Z" fill="#0F214F"/>
<path d="M431.287 544.723V540.283C431.287 540.173 431.199 540.084 431.088 540.084H429.829C429.719 540.084 429.63 540.173 429.63 540.283V544.723C429.63 544.834 429.719 544.922 429.829 544.922H431.088C431.199 544.944 431.287 544.834 431.287 544.723Z" fill="#0F214F"/>
<path d="M437.606 555.46L434.425 552.411C434.314 552.301 434.138 552.301 434.027 552.411L433.254 553.162C433.143 553.273 433.143 553.428 433.254 553.538L436.435 556.587C436.546 556.697 436.723 556.697 436.833 556.587L437.606 555.835C437.717 555.725 437.717 555.548 437.606 555.46Z" fill="#0F214F"/>
<path d="M450.112 558.796H445.45C445.34 558.796 445.251 558.884 445.251 558.994V560.165C445.251 560.276 445.34 560.364 445.45 560.364H450.112C450.223 560.364 450.311 560.276 450.311 560.165V558.994C450.311 558.906 450.223 558.796 450.112 558.796Z" fill="#0F214F"/>
<path d="M461.314 552.765L458.133 555.813C458.022 555.924 458.022 556.078 458.133 556.189L458.906 556.94C459.016 557.05 459.193 557.05 459.304 556.94L462.485 553.891C462.596 553.781 462.596 553.626 462.485 553.516L461.712 552.765C461.602 552.654 461.403 552.654 461.314 552.765Z" fill="#0F214F"/>
<path d="M464.805 540.791V545.232C464.805 545.342 464.894 545.43 465.004 545.43H466.264C466.374 545.43 466.463 545.342 466.463 545.232V540.791C466.463 540.681 466.374 540.592 466.264 540.592H465.004C464.894 540.592 464.805 540.681 464.805 540.791Z" fill="#0F214F"/>
<path d="M458.486 530.077L461.668 533.126C461.778 533.236 461.955 533.236 462.066 533.126L462.839 532.374C462.949 532.264 462.949 532.109 462.839 531.999L459.657 528.95C459.547 528.84 459.37 528.84 459.26 528.95L458.486 529.701C458.376 529.812 458.376 529.967 458.486 530.077Z" fill="#0F214F"/>
<path d="M448.057 547.397C450.73 547.397 452.896 545.32 452.896 542.757C452.896 540.195 450.73 538.118 448.057 538.118C445.385 538.118 443.219 540.195 443.219 542.757C443.219 545.32 445.385 547.397 448.057 547.397Z" fill="#E6E7E8"/>
<path d="M448.057 547.021C450.51 547.021 452.498 545.112 452.498 542.757C452.498 540.403 450.51 538.494 448.057 538.494C445.604 538.494 443.616 540.403 443.616 542.757C443.616 545.112 445.604 547.021 448.057 547.021Z" fill="#6D6E71"/>
<path d="M172.642 537.941H157.816C156.822 537.941 155.938 538.516 155.54 539.377L153.242 544.569C152.558 546.093 153.773 547.794 155.518 547.75L169.858 547.308C172.068 547.242 173.835 545.497 173.835 543.376V539.09C173.835 538.472 173.305 537.941 172.642 537.941Z" fill="#0F214F"/>
<path d="M516.066 520.202L508.554 530.961L507.493 544.503H508.863C514.387 544.503 518.85 540.217 518.85 534.937V521.019C518.85 519.561 516.906 518.987 516.066 520.202Z" fill="#0F214F"/>
<path d="M154.657 496.123C154.59 504.031 163.76 526.587 169.129 539.09C170.344 541.94 174.608 541.918 175.757 539.024C175.956 538.516 176.155 538.03 176.354 537.566C180.243 528.354 184.993 522.964 190.163 519.805C191.931 518.722 193.743 517.905 195.577 517.286C200.106 515.74 204.79 515.431 209.342 515.342C225.471 515.099 235.989 525.084 239.59 529.547C242.109 532.684 245.799 541.432 247.787 546.38C248.34 547.772 249.444 548.855 250.814 549.429C251.543 549.738 252.339 549.915 253.156 549.915L408.352 550.048H408.595C409.568 550.048 410.473 549.672 411.114 549.031C411.534 548.634 411.843 548.104 411.998 547.529C420.46 516.579 439.838 512.028 446.908 512.006C452.167 511.984 456.718 512.691 460.696 513.884C471.588 517.198 477.974 524.422 481.752 531.646C486.878 541.476 487.099 551.285 487.099 551.285L507.603 544.171C509.194 543.619 510.343 542.271 510.586 540.681C513.702 520.18 508.841 498.84 506.013 488.899C504.974 485.21 502.853 481.874 499.936 479.267C494.236 474.186 484.315 465.858 479.631 464.709C479.587 464.687 479.543 464.687 479.476 464.687C479.079 464.621 478.681 464.687 478.327 464.864L476.383 465.791C476.383 465.791 461.69 440.894 456.21 429.142C455.525 427.684 455.79 426.049 456.763 424.856C457.006 424.569 457.315 424.282 457.646 424.061L457.978 423.84C458.42 423.464 458.574 422.89 458.464 422.404C458.353 421.962 458.066 421.587 457.58 421.388C451.659 418.869 435.132 412.021 425.366 409.922C408.485 406.299 347.547 394.9 283.206 411.646L279.317 412.618C278.345 412.861 278.102 413.987 278.72 414.584C278.809 414.694 278.941 414.76 279.074 414.849L280.355 415.467L286.94 418.649C287.028 418.693 287.094 418.715 287.161 418.759C289.768 420.217 290.652 423.42 289.149 425.939L267.253 462.699C264.58 467.183 258.592 468.707 253.93 466.101C251.654 464.819 249.533 463.383 248.428 461.947C248.207 461.66 247.876 461.484 247.522 461.439C247.257 461.395 246.992 461.439 246.749 461.55C244.517 462.544 239.413 465.062 236.187 468.464C236.187 468.464 196.46 469.149 166.013 480.769C163.296 481.808 158.545 483.575 156.137 488.811C155.253 490.71 154.679 493.118 154.657 496.123ZM376.933 428.104C376.911 425.188 379.452 422.846 382.501 422.978L406.96 424.017C419.068 424.525 429.961 431.152 435.596 441.425L444.345 457.397C448.344 464.378 444.544 470.917 438.534 470.917H383.385C379.916 470.917 377.11 468.243 377.088 464.908L376.933 428.104ZM273.97 467.139L299.158 427.927C299.932 426.712 301.302 425.983 302.782 425.961L365.422 425.563C367.3 425.541 368.824 426.999 368.824 428.811V462.787C368.824 467.956 364.449 471.8 359.036 471.8L278.897 472.109H278.875H276.864C274.213 472.132 272.578 469.326 273.97 467.139Z" fill="#D1D3D4"/>
<path d="M360.008 486.513C360.008 487.397 359.567 488.236 358.793 488.921C357.445 490.158 355.081 490.953 352.408 490.953C348.21 490.953 344.807 488.965 344.807 486.491C344.807 484.039 348.21 482.028 352.408 482.028C355.037 482.028 357.335 482.802 358.705 483.995C359.544 484.724 360.008 485.585 360.008 486.513Z" fill="#0F214F"/>
<path opacity="0.2" d="M366.482 486.513C366.482 487.242 366.173 487.905 365.665 488.391C365.157 488.877 364.472 489.164 363.72 489.164L358.815 488.921C359.589 488.236 360.031 487.397 360.031 486.513C360.031 485.585 359.545 484.746 358.727 484.017L363.72 483.862C365.223 483.862 366.482 485.055 366.482 486.513Z" fill="#58595B"/>
<path d="M348.077 487.794L363.455 488.347C364.516 488.347 365.378 487.507 365.378 486.491C365.378 485.475 364.516 484.635 363.455 484.635L348.077 485.187C347.017 485.187 346.155 485.475 346.155 486.491C346.155 487.529 347.017 487.794 348.077 487.794Z" fill="#F1F2F2"/>
<path opacity="0.55" d="M456.144 429.142C461.646 440.917 476.317 465.791 476.317 465.791L477.046 465.438L478.283 464.863C478.283 464.863 478.239 464.731 478.173 464.51C477.135 461.461 469.313 439.216 457.138 425.32C457.028 425.188 456.94 425.077 456.829 424.967C456.807 424.922 456.763 424.878 456.719 424.834H456.697C455.702 426.049 455.459 427.706 456.144 429.142Z" fill="#FDFFFB"/>
<path opacity="0.55" d="M248.406 461.947C249.025 462.743 249.931 463.538 251.013 464.289C251.897 464.93 252.891 465.526 253.908 466.101C254.681 466.542 255.521 466.852 256.338 467.073C260.47 468.111 264.999 466.432 267.231 462.699L289.127 425.939C289.923 424.613 290.033 423.089 289.591 421.741C289.194 420.526 288.354 419.444 287.117 418.759C287.05 418.715 286.962 418.671 286.896 418.649L280.311 415.467C280.311 415.467 280.289 415.489 280.267 415.534C280.223 415.578 280.179 415.666 280.113 415.755C277.704 419.002 255.477 449.179 248.627 461.638C248.539 461.727 248.472 461.837 248.406 461.947Z" fill="#FDFFFB"/>
<path d="M376.977 427.441L401.415 428.479C413.523 428.987 424.416 435.615 430.05 445.887L438.8 461.859C440.7 465.173 440.832 468.376 439.838 470.828C445.075 469.967 448.035 463.892 444.345 457.419L435.596 441.447C429.961 431.174 419.069 424.547 406.96 424.039L382.501 423.001C379.695 422.868 377.309 424.856 376.977 427.441Z" fill="#58595B"/>
<path d="M376.734 464.93L376.58 428.104C376.58 427.839 376.602 427.596 376.624 427.375L376.668 427.065L401.437 428.126C413.611 428.634 424.703 435.394 430.381 445.71L439.131 461.682C440.965 464.864 441.318 468.155 440.191 470.939L440.125 471.115L439.926 471.16C439.484 471.248 439.043 471.27 438.556 471.27H383.407C379.739 471.292 376.734 468.442 376.734 464.93ZM438.49 462.014L429.74 446.042C424.195 435.924 413.324 429.319 401.415 428.811L377.309 427.794C377.309 427.905 377.309 427.993 377.309 428.104L377.463 464.93C377.485 468.045 380.137 470.585 383.407 470.585H438.556C438.932 470.585 439.263 470.563 439.595 470.519C440.567 467.956 440.169 464.952 438.49 462.014Z" fill="#0F214F"/>
<path d="M376.734 464.93L376.58 428.104C376.58 427.839 376.602 427.596 376.624 427.375L376.668 427.065L401.437 428.126C413.611 428.634 424.703 435.394 430.381 445.71L439.131 461.682C440.965 464.864 441.318 468.155 440.191 470.939L440.125 471.115L439.926 471.16C439.484 471.248 439.043 471.27 438.556 471.27H383.407C379.739 471.292 376.734 468.442 376.734 464.93ZM438.49 462.014L429.74 446.042C424.195 435.924 413.324 429.319 401.415 428.811L377.309 427.794C377.309 427.905 377.309 427.993 377.309 428.104L377.463 464.93C377.485 468.045 380.137 470.585 383.407 470.585H438.556C438.932 470.585 439.263 470.563 439.595 470.519C440.567 467.956 440.169 464.952 438.49 462.014Z" fill="#0F214F"/>
<path d="M275.031 471.601C274.986 471.005 275.141 470.386 275.517 469.79L299.777 432.014C300.528 430.843 301.854 430.136 303.268 430.136L363.61 429.76C365.422 429.738 366.902 431.152 366.902 432.875V465.592C366.902 466.83 366.637 468 366.173 469.061C367.83 467.47 368.868 465.283 368.868 462.787V428.81C368.868 426.999 367.322 425.541 365.466 425.563L302.826 425.961C301.346 425.983 299.976 426.712 299.203 427.927L274.014 467.139C272.932 468.751 273.55 470.695 275.031 471.601Z" fill="#58595B"/>
<path d="M274.832 471.889L274.677 471.8V471.623C274.633 470.917 274.81 470.232 275.207 469.613L299.468 431.837C300.285 430.556 301.699 429.805 303.268 429.783L363.61 429.407C364.604 429.407 365.51 429.76 366.195 430.423C366.88 431.086 367.256 431.947 367.256 432.875V465.593C367.256 466.852 366.99 468.067 366.482 469.193L366.416 469.304C364.494 471.137 361.886 472.132 359.08 472.132L276.909 472.463C276.135 472.463 275.428 472.264 274.832 471.889ZM366.526 465.593V432.875C366.526 432.124 366.217 431.439 365.665 430.909C365.112 430.379 364.361 430.114 363.588 430.092L303.246 430.467C301.942 430.467 300.749 431.108 300.042 432.191L275.782 469.967C275.495 470.408 275.362 470.894 275.34 471.38C275.782 471.623 276.312 471.756 276.842 471.756L359.014 471.425C361.621 471.425 364.03 470.497 365.797 468.84C366.283 467.846 366.526 466.741 366.526 465.593Z" fill="#0F214F"/>
<path d="M274.832 471.888L274.677 471.8V471.623C274.633 470.916 274.81 470.232 275.207 469.635L299.468 431.859C300.285 430.578 301.699 429.827 303.268 429.827L363.61 429.451C364.582 429.407 365.488 429.805 366.173 430.445C366.858 431.108 367.234 431.97 367.234 432.897V465.592C367.234 466.852 366.968 468.067 366.46 469.193L366.394 469.304C364.494 471.137 361.887 472.132 359.058 472.132L276.887 472.463C276.158 472.463 275.428 472.264 274.832 471.888ZM366.527 465.592V432.875C366.527 432.124 366.217 431.417 365.665 430.887C365.112 430.357 364.383 430.07 363.588 430.07L303.246 430.445C301.92 430.445 300.727 431.108 300.042 432.168L275.782 469.944C275.495 470.386 275.34 470.872 275.34 471.38C275.804 471.623 276.312 471.756 276.865 471.756L359.036 471.425C361.644 471.425 364.052 470.497 365.842 468.818C366.306 467.846 366.527 466.741 366.527 465.592Z" fill="#0F214F"/>
<path opacity="0.55" d="M376.933 428.104L377.088 464.93C377.11 468.243 379.916 470.938 383.385 470.938H438.534C444.544 470.938 448.345 464.399 444.345 457.419L435.574 441.447C429.939 431.174 419.047 424.547 406.938 424.039L382.479 423.001C379.452 422.868 376.911 425.188 376.933 428.104Z" fill="#FDFFFB"/>
<path opacity="0.55" d="M365.422 425.585L302.782 425.983C301.302 425.983 299.932 426.734 299.158 427.949L273.97 467.161C272.578 469.348 274.213 472.154 276.887 472.132L359.058 471.822C364.449 471.822 368.824 467.978 368.824 462.809V428.833C368.824 427.021 367.3 425.563 365.422 425.585Z" fill="#FDFFFB"/>
<path d="M495.893 496.476L499.473 505.556L505.681 521.329L510.918 518.479C512.001 517.883 512.531 516.69 512.2 515.541C511.89 514.414 511.426 512.868 510.852 511.123C510.101 508.825 509.106 506.196 507.957 503.722C506.632 500.872 505.063 498.199 503.295 496.432C502.787 495.946 502.102 495.659 501.373 495.615C500.357 495.57 498.81 495.615 497.197 496.056C496.755 496.145 496.313 496.299 495.893 496.476Z" fill="#AD0303"/>
<path d="M495.893 496.476L499.473 505.556L507.957 503.722C506.631 500.872 505.063 498.199 503.295 496.432C502.787 495.946 502.102 495.659 501.373 495.615C500.356 495.57 498.81 495.615 497.197 496.056C496.755 496.145 496.313 496.299 495.893 496.476Z" fill="#FCA713"/>
<path opacity="0.47" d="M497.175 496.034L505.041 513.398L510.83 511.101C509.195 506.174 506.565 499.679 503.273 496.41C502.765 495.924 502.08 495.637 501.351 495.592C500.357 495.57 498.788 495.615 497.175 496.034Z" fill="#E6E7E8"/>
<path d="M495.893 496.476L492.844 497.404L502.831 522.853L505.681 521.307L495.893 496.476Z" fill="#58595B"/>
<path d="M160.225 488.81L159.783 511.631C159.783 511.631 156.557 510.858 155.783 509.952L156.159 490.357C156.137 490.357 157.662 488.744 160.225 488.81Z" fill="#58595B"/>
<path d="M155.761 509.598C155.761 509.598 152.69 501.027 156.115 491.174L155.761 509.598Z" fill="#D1D3D4"/>
<path d="M511.117 532.087L493.353 539.068C492.314 539.488 491.651 540.482 491.717 541.564L492.005 546.115C492.093 547.33 493.993 548.81 495.231 548.457L511.294 542.934C512.509 542.581 513.304 541.454 513.194 540.217L512.443 532.816C512.354 532.242 511.691 531.866 511.117 532.087Z" fill="#0F214F"/>
<path d="M517.215 521.881L509.703 532.64L508.642 546.181H510.012C515.536 546.181 519.999 541.896 519.999 536.616V522.698C520.021 521.24 518.055 520.688 517.215 521.881Z" fill="#0F214F"/>
<path d="M160.865 539.267L154.988 525.681C154.369 524.223 152.182 524.311 151.696 525.813C150.326 529.944 148.492 536.505 148.006 542.912C147.586 548.368 152.049 553.052 157.772 553.052C158.214 553.052 158.545 552.72 158.567 552.301L158.612 547.551L160.865 539.267Z" fill="#0F214F"/>
<path d="M173.658 539.267H158.833C157.838 539.267 156.955 539.841 156.557 540.703L154.259 545.894C153.574 547.418 154.789 549.119 156.535 549.075L170.874 548.633C173.084 548.567 174.852 546.822 174.852 544.701V540.416C174.852 539.775 174.321 539.267 173.658 539.267Z" fill="#0F214F"/>
<path d="M161.661 520.754L157.927 532.463L160.865 539.267H169.195L161.661 520.754Z" fill="#0F214F"/>
<path d="M446.003 420.813C446.003 420.813 364.715 397.64 289.834 415.644C289.834 415.644 363.522 405.217 446.003 420.813Z" fill="#E6E7E8"/>
<path d="M478.151 464.532C477.112 461.483 469.291 439.238 457.116 425.342C461.712 431.174 477.024 465.46 477.024 465.46L478.261 464.886C478.261 464.886 478.217 464.753 478.151 464.532Z" fill="#BCBEC0"/>
<path d="M456.697 424.856C456.741 424.901 456.785 424.945 456.83 424.99C456.785 424.967 456.741 424.901 456.697 424.856Z" fill="#BCBEC0"/>
<path d="M248.406 461.947C249.025 462.743 249.931 463.538 251.013 464.289C253.952 455.254 279.008 417.367 280.245 415.512C280.201 415.556 280.157 415.644 280.09 415.733C277.682 418.98 255.454 449.157 248.605 461.616C248.539 461.727 248.472 461.837 248.406 461.947Z" fill="#D1D3D4"/>
<path d="M256.338 467.051C260.47 468.089 265 466.41 267.231 462.676L289.127 425.917C289.923 424.591 290.033 423.067 289.591 421.719C287.117 424.922 267.01 450.946 256.338 467.051Z" fill="#D1D3D4"/>
<path d="M420.483 475.777C425.432 475.755 473.776 478.118 473.776 478.118L242.728 478.759C242.728 478.759 254.328 477.235 258.26 477.08C318.691 474.716 364.206 475.975 420.483 475.777Z" fill="#E6E7E8"/>
<path d="M248.207 462.257C249.246 463.538 251.102 464.908 253.731 466.388C255.3 467.271 257.023 467.713 258.791 467.713C259.675 467.713 260.558 467.603 261.42 467.382C264.027 466.697 266.215 465.106 267.54 462.853L289.437 426.093C291.027 423.442 290.077 419.996 287.316 418.45C287.227 418.406 287.161 418.361 287.072 418.317L280.51 415.158L280.333 415.445C280.333 415.445 280.267 415.534 280.113 415.732L280.223 415.777L286.785 418.936C286.874 418.98 286.918 419.002 286.984 419.024C289.415 420.394 290.254 423.398 288.862 425.74L266.966 462.5C265.707 464.598 263.696 466.078 261.265 466.697C258.835 467.316 256.316 466.984 254.129 465.791C251.499 464.311 249.688 462.964 248.738 461.726L248.627 461.616C248.561 461.726 248.494 461.837 248.45 461.947L248.207 462.257Z" fill="#422603"/>
<path d="M455.813 429.297C458.531 435.129 463.546 444.23 467.899 451.918C472.252 459.606 475.941 465.858 476.008 465.99L476.184 466.277L478.438 465.195L478.283 464.886C478.283 464.886 478.239 464.753 478.173 464.532L476.494 465.349C474.859 462.544 461.602 439.944 456.498 429.009C456.255 428.501 456.144 427.971 456.144 427.441C456.144 426.623 456.409 425.806 456.962 425.143C456.896 425.055 456.807 424.967 456.741 424.878L456.454 424.657C455.327 425.961 455.084 427.75 455.813 429.297Z" fill="#422603"/>
<g opacity="0.32">
<path opacity="0.32" d="M394.212 470.939L426.714 431.152C430.315 433.914 433.364 437.382 435.596 441.425L437.54 444.959L416.329 470.916H394.212V470.939Z" fill="#D1D3D4"/>
<path opacity="0.32" d="M376.933 429.385L382.148 423C382.258 423 382.369 423 382.501 423L403.536 423.884L377.044 456.314L376.933 429.385Z" fill="#D1D3D4"/>
<path opacity="0.32" d="M383.385 470.939C379.916 470.939 377.11 468.266 377.088 464.93V462.632L408.529 424.127C412.75 424.503 416.793 425.607 420.483 427.352L384.888 470.917H383.385V470.939Z" fill="#D1D3D4"/>
<path opacity="0.32" d="M421.035 470.939L439.418 448.428L444.345 457.419C444.699 458.015 444.964 458.612 445.207 459.208L435.618 470.939H421.035Z" fill="#D1D3D4"/>
</g>
<g opacity="0.32">
<path opacity="0.32" d="M318.691 471.955L356.539 425.629L365.422 425.563C367.3 425.541 368.824 426.999 368.824 428.81V437.647L340.874 471.866L318.691 471.955Z" fill="#D1D3D4"/>
<path opacity="0.32" d="M276.887 472.11C274.213 472.11 272.578 469.327 273.97 467.14L283.471 452.339L305.036 425.94L327.263 425.807L289.481 472.066L276.887 472.11Z" fill="#D1D3D4"/>
<path opacity="0.32" d="M294.695 472.043L332.478 425.784L347.149 425.696L309.322 471.999L294.695 472.043Z" fill="#D1D3D4"/>
<path opacity="0.32" d="M359.058 471.8L345.58 471.844L368.824 443.391V461.263L360.274 471.734C359.876 471.778 359.456 471.8 359.058 471.8Z" fill="#D1D3D4"/>
</g>
<path d="M376.734 464.93L376.58 428.104C376.58 427.839 376.602 427.596 376.624 427.397C376.977 424.613 379.585 422.537 382.523 422.647L406.982 423.685C419.179 424.193 430.249 430.931 435.927 441.27L444.677 457.242C446.621 460.622 446.908 464.223 445.472 467.073C444.367 469.26 442.335 470.762 439.926 471.16C439.484 471.248 439.042 471.27 438.556 471.27H383.407C379.739 471.292 376.734 468.442 376.734 464.93ZM377.331 427.485C377.309 427.662 377.287 427.883 377.287 428.104L377.441 464.93C377.463 468.045 380.115 470.585 383.385 470.585H438.534C438.976 470.585 439.374 470.541 439.772 470.475C441.959 470.121 443.793 468.752 444.787 466.763C446.113 464.113 445.848 460.755 444.014 457.551L435.264 441.579C429.718 431.462 418.87 424.856 406.938 424.348L382.479 423.31C382.413 423.31 382.324 423.31 382.258 423.31C379.783 423.332 377.64 425.121 377.331 427.485Z" fill="#0F214F"/>
<path d="M274.832 471.889C273.086 470.806 272.578 468.641 273.661 466.962L298.849 427.75C299.689 426.425 301.169 425.652 302.782 425.629L365.422 425.232C366.416 425.21 367.366 425.585 368.095 426.27C368.802 426.955 369.2 427.861 369.2 428.811V462.787C369.2 465.261 368.206 467.581 366.416 469.304C364.494 471.137 361.886 472.132 359.08 472.132L276.909 472.463C276.135 472.463 275.428 472.264 274.832 471.889ZM365.422 425.917L302.782 426.314C301.412 426.336 300.175 426.999 299.446 428.104L274.257 467.316C273.285 468.84 273.97 470.541 275.207 471.314C275.694 471.623 276.268 471.778 276.865 471.778L359.036 471.447C361.666 471.447 364.096 470.519 365.864 468.818C367.521 467.227 368.449 465.084 368.449 462.787V428.811C368.449 428.037 368.139 427.308 367.543 426.756C366.968 426.204 366.217 425.917 365.422 425.917Z" fill="#0F214F"/>
<path d="M422.471 518.324C422.471 518.324 417.08 524.444 412.374 531.27C411.512 532.507 410.142 535.556 408.949 538.405C408.463 539.996 407.999 541.586 407.623 542.934C407.049 544.989 405.127 546.424 402.917 546.469C396.532 546.579 384.114 546.402 375.718 546.491C375.718 546.491 400.995 545.475 403.337 542.514C405.657 539.598 406.784 534.451 411.092 529.613C416.506 523.516 422.118 518.391 422.471 518.324Z" fill="#E6E7E8"/>
<path d="M239.391 523.604C239.391 523.604 243.611 528.376 247.279 533.722C247.942 534.694 249.025 537.058 249.953 539.289C250.328 540.526 250.704 541.785 250.991 542.824C251.433 544.436 252.936 545.541 254.681 545.585C259.675 545.673 260.868 545.43 267.43 545.519C267.43 545.519 256.184 544.812 254.35 542.492C252.538 540.217 251.654 536.196 248.296 532.419C244.053 527.669 239.678 523.648 239.391 523.604Z" fill="#E6E7E8"/>
<path d="M487.033 521.771C487.033 521.771 476.935 508.162 460.718 505.534C444.5 502.905 431.088 509.223 428.547 511.83C428.547 511.83 425.255 511.564 433.74 506.086C448.367 496.653 473.798 499.392 483.476 513.398C485.84 516.778 489.066 521.969 487.033 521.771Z" fill="#E6E7E8"/>
<path d="M233.492 517.529C233.492 517.529 223.615 509.731 209.961 510.062C196.306 510.394 185.965 516.336 184.176 518.413C184.176 518.413 180.861 516.646 187.512 512.294C198.339 505.246 215.065 503.523 227.791 511.277C232.917 514.37 235.193 517.419 233.492 517.529Z" fill="#E6E7E8"/>
<path d="M316.393 469.746C316.039 469.768 315.664 469.79 315.266 469.812L316.393 469.746Z" fill="#E6E7E8"/>
<path d="M315.266 469.834L313.962 469.922C314.426 469.878 314.868 469.856 315.266 469.834Z" fill="#E6E7E8"/>
<path d="M156.137 488.788C156.446 488.634 178.652 476.55 250.373 472.043L236.187 468.464C236.187 468.464 196.46 469.149 166.013 480.769C163.296 481.785 158.523 483.553 156.137 488.788Z" fill="#E6E7E8"/>
<path d="M261.531 532.087C260.072 513.663 261.111 488.17 261.442 484.105C261.972 477.522 267.806 470.187 268.866 469.127C269.75 468.221 271.252 465.924 271.849 464.974C277.881 455.563 295.712 426.999 295.888 426.712C297.524 424.127 300.484 422.514 303.622 422.514L366.924 422.426C366.924 422.426 366.924 422.426 366.946 422.426C368.758 422.426 370.194 422.934 371.211 423.928C372.293 424.989 372.846 426.557 372.802 428.501C372.713 432.08 372.868 437.448 373.089 444.871C373.199 448.847 373.332 453.354 373.442 458.391C373.995 482.249 374.547 485.607 376.005 494.62C377.088 501.226 376.116 522.058 376.072 522.919C376.072 536.991 365.024 548.015 350.927 548.015H279.406C270.258 548.015 262.238 540.857 261.531 532.087ZM366.968 423.111L303.666 423.199C300.771 423.199 298.032 424.679 296.529 427.065C296.352 427.352 278.5 455.916 272.468 465.327C271.694 466.52 270.28 468.663 269.396 469.591C268.38 470.629 262.702 477.765 262.171 484.149C261.84 488.214 260.801 513.641 262.26 532.021C262.923 540.46 270.634 547.33 279.428 547.33H350.949C364.648 547.33 375.365 536.616 375.387 522.897C375.387 522.676 376.403 501.248 375.32 494.709C373.84 485.673 373.288 482.293 372.735 458.391C372.625 453.354 372.492 448.847 372.382 444.871C372.161 437.448 372.006 432.058 372.094 428.479C372.139 426.734 371.653 425.32 370.725 424.392C369.841 423.531 368.581 423.111 366.968 423.111Z" fill="#422603"/>
<path d="M272.247 460.997C272.247 460.997 271.805 463.759 272.247 466.056C272.622 468.023 274.721 471.513 274.721 471.513C274.876 471.844 275.384 471.734 275.384 471.38C275.384 469.215 275.031 464.996 272.91 460.843C272.755 460.556 272.247 460.666 272.247 460.997Z" fill="#808285"/>
<path d="M272.291 474.076C272.136 473.766 271.716 473.722 271.495 473.943L271.473 466.741L272.247 466.785L272.291 474.076Z" fill="#808285"/>
<path d="M272.998 475.843C271.694 476.462 270.833 475.843 270.833 475.843L271.407 474.12C271.429 474.054 271.473 473.987 271.517 473.943C271.738 473.722 272.158 473.744 272.313 474.076L272.335 474.098L272.998 475.843Z" fill="#6D6E71"/>
<path d="M272.379 465.305L271.009 466.034C270.678 466.211 270.788 466.719 271.186 466.741L272.711 466.83C272.711 466.83 273.064 466.233 272.379 465.305Z" fill="#6D6E71"/>
<path d="M453.426 438.973L465.711 460.401C466.507 461.793 465.468 463.472 463.811 463.472H454.686C452.874 463.472 451.195 462.5 450.377 460.953L436.723 435.504C436.192 434.532 436.944 433.361 438.093 433.361H443.594C447.66 433.383 451.438 435.526 453.426 438.973Z" fill="#939598"/>
<path d="M455.747 424.635C456.255 424.26 455.614 421.918 453.449 422.978C451.283 424.039 451.394 428.369 451.924 429.274C452.874 430.975 470.838 463.472 471.743 465.106C473.865 468.95 484.095 477.279 487.033 485.43C487.033 485.43 496.777 491.307 497.175 496.034L503.273 496.41C503.273 496.41 502.367 488.589 501.903 486.005C501.594 484.259 499.871 481.034 495.871 478.737C491.894 476.439 485.641 470.695 476.14 466.255C474.218 465.349 459.215 437.404 455.371 430.158C454.642 428.766 454.465 427.154 455.039 425.696C455.238 425.254 455.459 424.856 455.747 424.635Z" fill="#E6E7E8"/>
<path d="M446.246 362.404L439.573 409.083C439.065 412.64 435.64 415.136 431.906 414.65L354.44 404.51C350.728 404.024 348.121 400.733 348.629 397.176L355.302 350.497C355.81 346.94 359.235 344.444 362.969 344.93L440.435 355.07C444.146 355.556 446.754 358.848 446.246 362.404Z" fill="#314123"/>
<path d="M363.742 345.041L362.704 352.242L355.17 351.248L355.28 350.497C355.788 346.94 359.213 344.444 362.947 344.93L363.742 345.041Z" fill="#E0FA78"/>
<path d="M446.246 362.404L446.135 363.155L438.601 362.161L439.639 354.959L440.434 355.07C444.146 355.556 446.754 358.847 446.246 362.404Z" fill="#E0FA78"/>
<path d="M356.274 397.397L355.236 404.598L354.44 404.488C350.728 404.002 348.121 400.71 348.629 397.154L348.74 396.403L356.274 397.397Z" fill="#E0FA78"/>
<path d="M439.683 408.332L439.573 409.083C439.065 412.64 435.64 415.136 431.906 414.65L431.11 414.539L432.149 407.338L439.683 408.332Z" fill="#E0FA78"/>
<path d="M370.724 406.653L367.918 406.277L376.425 346.697L379.253 347.051L370.724 406.653Z" fill="#0F214F"/>
<path d="M418.45 412.883L415.644 412.529L424.151 352.949L426.979 353.302L418.45 412.883Z" fill="#0F214F"/>
<path d="M409.17 377.294L394.388 375.35L395.471 367.816L410.253 369.738L409.17 377.294Z" fill="#ED545C"/>
<path d="M384.004 389.267L380.932 388.869L381.087 387.765L384.158 388.163L384.004 389.267Z" fill="#FFD0A1"/>
<path d="M409.015 399.12L401.856 398.192L402.608 392.89L409.788 393.818L409.015 399.12Z" fill="#ED7D89"/>
<path d="M406.784 385.556L400.575 384.738L401.282 379.79L407.491 380.607L406.784 385.556Z" fill="#FFD0A1"/>
<path d="M435.375 390.173L433.231 389.886L434.027 384.407L436.148 384.694L435.375 390.173Z" fill="#FF9933"/>
<path d="M367.079 373.273L361.864 372.588L362.66 367.043L367.874 367.706L367.079 373.273Z" fill="#ED545C"/>
<path d="M399.05 360.902L385.992 359.179L386.788 353.612L399.846 355.313L399.05 360.902Z" fill="#FF9933"/>
<path d="M384.843 376.653C386.771 376.653 388.334 375.16 388.334 373.317C388.334 371.475 386.771 369.981 384.843 369.981C382.915 369.981 381.352 371.475 381.352 373.317C381.352 375.16 382.915 376.653 384.843 376.653Z" fill="#ED545C"/>
<path d="M393.593 389.046C393.527 389.51 392.82 389.797 392.002 389.687C391.185 389.576 390.588 389.112 390.654 388.649C390.721 388.185 391.428 387.898 392.245 388.008C393.063 388.14 393.659 388.582 393.593 389.046Z" fill="#FFD0A1"/>
<path d="M430.514 377.029C430.425 377.625 429.74 378.045 428.989 377.934C428.238 377.824 427.686 377.272 427.774 376.653C427.862 376.057 428.547 375.637 429.299 375.747C430.05 375.858 430.602 376.432 430.514 377.029Z" fill="#FFD0A1"/>
<path d="M364.228 386.638C364.052 387.92 362.925 388.825 361.754 388.671C360.561 388.516 359.743 387.345 359.942 386.086C360.119 384.805 361.246 383.899 362.417 384.054C363.61 384.186 364.405 385.357 364.228 386.638Z" fill="#ED545C"/>
<path d="M388.754 402.08C388.467 404.157 386.456 405.615 384.291 405.327C382.126 405.04 380.601 403.118 380.888 401.042C381.176 398.965 383.186 397.507 385.351 397.794C387.539 398.082 389.041 400.003 388.754 402.08Z" fill="#ED7D89"/>
<path d="M429.122 397.794C429.011 398.568 428.26 399.12 427.443 399.009C426.625 398.899 426.073 398.192 426.183 397.419C426.294 396.646 427.045 396.093 427.862 396.204C428.68 396.292 429.232 396.999 429.122 397.794Z" fill="#ED7D89"/>
<path d="M412.661 351.447L392.532 348.818C392.422 348.796 392.356 348.708 392.378 348.619L392.687 346.432C392.709 346.344 392.797 346.278 392.886 346.278L413.015 348.906C413.125 348.929 413.191 349.017 413.169 349.105L412.86 351.292C412.86 351.381 412.772 351.447 412.661 351.447Z" fill="#E5FF7A"/>
<path d="M410.01 364.989L406.916 406.653C406.762 408.818 404.795 410.431 402.519 410.276L388.666 409.326C386.412 409.172 384.711 407.316 384.865 405.151L387.959 363.487C388.113 361.344 390.058 359.709 392.334 359.864L406.187 360.814C408.441 360.968 410.164 362.846 410.01 364.989Z" fill="#FFD0A1"/>
<path d="M390.588 409.481L390.036 409.436L393.924 359.974L394.477 360.018L390.588 409.481Z" fill="#0F214F"/>
<path d="M410.01 364.989L405.9 364.702L406.187 360.791C408.441 360.968 410.164 362.846 410.01 364.989Z" fill="#868586"/>
<path d="M392.333 359.864L392.046 363.774L387.959 363.487C388.113 361.344 390.058 359.709 392.333 359.864Z" fill="#868586"/>
<path d="M406.894 406.653C406.74 408.818 404.773 410.431 402.497 410.276L402.784 406.366L406.894 406.653Z" fill="#868586"/>
<path d="M388.953 405.438L388.666 409.348C386.412 409.193 384.711 407.338 384.865 405.173L388.953 405.438Z" fill="#868586"/>
<path d="M402.851 359.378L396.399 358.936C396.377 358.936 396.333 358.958 396.333 358.98L396.244 360.062C396.244 360.085 396.266 360.107 396.288 360.129L402.74 360.57C402.762 360.57 402.807 360.548 402.807 360.526L402.895 359.444C402.895 359.422 402.873 359.378 402.851 359.378Z" fill="#0F214F"/>
<path d="M441.031 380.939L433.872 412.507C433.32 414.672 431.044 416.02 428.768 415.534L410.297 411.69C408.021 411.226 406.54 409.105 406.96 406.896L414.119 375.328C414.627 373.096 416.925 371.683 419.245 372.169L437.717 376.012C440.059 376.521 441.539 378.73 441.031 380.939Z" fill="#742421"/>
<path d="M419.267 372.19L418.361 376.233L414.141 375.35C414.649 373.118 416.947 371.704 419.267 372.19Z" fill="#FAFF69"/>
<path d="M441.031 380.939L436.811 380.055L437.717 376.012C440.059 376.52 441.539 378.73 441.031 380.939Z" fill="#FAFF69"/>
<path d="M411.202 407.802L410.319 411.712C408.043 411.248 406.563 409.127 406.983 406.918L411.202 407.802Z" fill="#FAFF69"/>
<path d="M433.872 412.507C433.32 414.672 431.044 416.02 428.768 415.534L429.652 411.624L433.872 412.507Z" fill="#FAFF69"/>
<path d="M415.732 412.839L415.202 412.728L424.172 373.207L424.703 373.317L415.732 412.839Z" fill="#0F214F"/>
<path d="M432.083 374.864L426.669 373.737C426.625 373.737 426.603 373.693 426.603 373.649L426.824 372.677C426.824 372.632 426.868 372.61 426.912 372.61L432.326 373.737C432.37 373.737 432.392 373.781 432.392 373.825L432.171 374.797C432.171 374.842 432.127 374.864 432.083 374.864Z" fill="#FAFF69"/>
<path d="M381.575 379.105L383.033 403.428C383.144 405.261 381.686 406.83 379.763 406.94L295.006 411.601C293.416 411.69 292.024 410.718 291.537 409.348C291.427 409.083 291.361 408.774 291.361 408.487L289.902 384.164C289.792 382.33 291.25 380.762 293.172 380.652L377.929 375.99C379.83 375.88 381.465 377.294 381.575 379.105Z" fill="#314123"/>
<g opacity="0.5">
<path opacity="0.5" d="M382.744 398.435L382.855 400.335L291.16 405.372L291.05 403.472L382.744 398.435Z" fill="white"/>
<path opacity="0.5" d="M382.678 397.573L382.722 398.059L291.028 403.096L291.005 402.61L382.678 397.573Z" fill="white"/>
<path opacity="0.5" d="M383.054 403.516C383.054 403.693 383.054 403.847 383.01 404.002L291.425 409.039C291.403 408.862 291.359 408.73 291.359 408.553L383.054 403.516Z" fill="white"/>
<path opacity="0.5" d="M382.899 401.219L383.031 403.14L291.337 408.177L291.226 406.255L382.899 401.219Z" fill="white"/>
</g>
<g opacity="0.5">
<path opacity="0.5" d="M381.883 384.054L381.993 385.953L290.298 390.99L290.188 389.09L381.883 384.054Z" fill="white"/>
<path opacity="0.5" d="M381.816 383.17L381.86 383.678L290.166 388.715L290.144 388.229L381.816 383.17Z" fill="white"/>
</g>
<g opacity="0.5">
<path opacity="0.5" d="M381.573 379.017L289.879 384.054C289.879 383.877 289.879 383.722 289.923 383.568L381.485 378.531C381.529 378.685 381.573 378.84 381.573 379.017Z" fill="white"/>
<path opacity="0.5" d="M381.375 378.155L290.012 383.192C290.144 382.573 290.498 382.021 290.962 381.624C291.139 381.425 291.315 381.292 291.514 381.182L379.608 376.322C379.851 376.41 380.094 376.565 380.292 376.763C380.447 376.852 380.624 377.006 380.712 377.161C380.977 377.404 381.154 377.691 381.265 377.978C381.309 378.023 381.331 378.089 381.375 378.155Z" fill="white"/>
</g>
<g opacity="0.5">
<path opacity="0.5" d="M293.856 380.629L295.712 411.579L295.027 411.624C294.563 411.646 294.121 411.579 293.701 411.447L291.867 380.983C292.265 380.806 292.707 380.696 293.171 380.674L293.856 380.629Z" fill="white"/>
<path opacity="0.5" d="M294.739 380.585L296.595 411.535L296.087 411.557L294.231 380.607L294.739 380.585Z" fill="white"/>
<path opacity="0.5" d="M290.961 381.624L292.729 410.939C292.176 410.541 291.757 409.989 291.536 409.37C291.514 409.26 291.447 409.171 291.425 409.061C291.403 408.884 291.359 408.752 291.359 408.575L289.879 384.076C289.879 383.899 289.879 383.744 289.923 383.59C289.945 383.435 289.945 383.303 290.011 383.192C290.144 382.551 290.497 381.999 290.961 381.624Z" fill="white"/>
</g>
<g opacity="0.5">
<path opacity="0.5" d="M313.454 379.547L315.443 379.436L317.299 410.386L315.31 410.497L313.454 379.547Z" fill="white"/>
<path opacity="0.5" d="M315.84 379.414L316.349 379.392L318.205 410.342L317.696 410.364L315.84 379.414Z" fill="white"/>
<path opacity="0.5" d="M309.632 379.768L310.14 379.724L311.996 410.696L311.488 410.718L309.632 379.768Z" fill="white"/>
<path opacity="0.5" d="M310.537 379.702L312.526 379.591L314.404 410.563L312.393 410.674L310.537 379.702Z" fill="white"/>
</g>
<path opacity="0.5" d="M302.097 380.166H302.252L304.108 411.115L303.953 411.137L302.097 380.166Z" fill="white"/>
<path opacity="0.5" d="M323.706 378.995L323.861 378.972L325.717 409.922L325.562 409.945L323.706 378.995Z" fill="white"/>
<g opacity="0.5">
<path opacity="0.5" d="M335.063 378.354L337.029 378.244L338.885 409.193L336.919 409.304L335.063 378.354Z" fill="white"/>
<path opacity="0.5" d="M337.427 378.222L337.935 378.2L339.813 409.149L339.305 409.171L337.427 378.222Z" fill="white"/>
<path opacity="0.5" d="M331.218 378.575L331.727 378.553L333.583 409.503L333.074 409.525L331.218 378.575Z" fill="white"/>
<path opacity="0.5" d="M332.124 378.531L334.135 378.42L335.991 409.37L333.98 409.481L332.124 378.531Z" fill="white"/>
</g>
<path opacity="0.5" d="M345.315 377.802L345.47 377.78L347.326 408.73L347.171 408.752L345.315 377.802Z" fill="white"/>
<g opacity="0.5">
<path opacity="0.5" d="M356.65 377.161L358.66 377.051L360.516 408.023L358.506 408.133L356.65 377.161Z" fill="white"/>
<path opacity="0.5" d="M359.036 377.029L359.544 377.007L361.4 407.956L360.892 408.001L359.036 377.029Z" fill="white"/>
<path opacity="0.5" d="M352.85 377.382L353.358 377.36L355.214 408.31L354.706 408.332L352.85 377.382Z" fill="white"/>
<path opacity="0.5" d="M353.755 377.338L355.722 377.227L357.578 408.177L355.611 408.288L353.755 377.338Z" fill="white"/>
</g>
<path opacity="0.5" d="M366.902 376.609L367.057 376.587L368.935 407.559H368.78L366.902 376.609Z" fill="white"/>
<g opacity="0.5">
<path opacity="0.5" d="M379.607 376.344C379.85 376.432 380.093 376.587 380.292 376.786L382.037 405.946C381.529 406.454 380.866 406.83 380.093 406.918L378.237 376.012C378.745 376.012 379.187 376.123 379.607 376.344Z" fill="white"/>
<path opacity="0.5" d="M380.734 377.161C380.999 377.404 381.176 377.691 381.286 377.978L382.877 404.598C382.788 404.908 382.656 405.217 382.413 405.482L380.734 377.161Z" fill="white"/>
<path opacity="0.5" d="M374.437 376.189L374.945 376.167L376.801 407.117L376.293 407.139L374.437 376.189Z" fill="white"/>
<path opacity="0.5" d="M375.342 376.145L377.331 376.035L379.209 406.984L377.198 407.095L375.342 376.145Z" fill="white"/>
</g>
<path d="M295.933 380.497L296.286 386.484L290.055 386.837L289.901 384.164C289.79 382.33 291.248 380.762 293.171 380.652L295.933 380.497Z" fill="#BE7F30"/>
<path d="M381.573 379.105L381.728 381.778L375.497 382.132L375.143 376.145L377.927 375.99C379.828 375.88 381.463 377.294 381.573 379.105Z" fill="#BE7F30"/>
<path d="M297.567 405.482L297.921 411.447L295.004 411.602C293.414 411.69 292.022 410.718 291.536 409.348L291.315 405.813L297.567 405.482Z" fill="#BE7F30"/>
<path d="M382.877 400.777L383.031 403.428C383.142 405.261 381.684 406.83 379.761 406.94L377.11 407.095L376.756 401.13L382.877 400.777Z" fill="#BE7F30"/>
<path d="M306.052 397.662L305.787 393.288C305.787 393.199 305.853 393.133 305.92 393.133L313.012 392.735C313.1 392.735 313.167 392.802 313.167 392.868L313.432 397.242C313.432 397.33 313.366 397.397 313.299 397.397L306.207 397.794C306.118 397.794 306.052 397.75 306.052 397.662Z" fill="#D9F0F8"/>
<path d="M306.892 396.292L306.803 394.569L313.255 394.216L313.344 395.939L306.892 396.292Z" fill="#0F214F"/>
<path d="M306.98 396.182L306.892 394.68L313.255 394.326L313.343 395.828L306.98 396.182Z" fill="#CED9DF"/>
<path d="M308.195 395.475V395.232L308.991 395.188L309.013 395.431L308.195 395.475Z" fill="#0F214F"/>
<path d="M367.476 394.282L367.211 389.908C367.211 389.819 367.145 389.775 367.057 389.775L359.964 390.173C359.876 390.173 359.81 390.239 359.832 390.328L360.097 394.702C360.097 394.79 360.163 394.834 360.251 394.834L367.344 394.436C367.432 394.436 367.476 394.37 367.476 394.282Z" fill="#D9F0F8"/>
<path d="M366.46 393L366.372 391.299L359.92 391.653L360.008 393.354L366.46 393Z" fill="#0F214F"/>
<path d="M366.372 392.912L366.283 391.41L359.92 391.763L360.008 393.244L366.372 392.912Z" fill="#CED9DF"/>
<path d="M365.068 392.36V392.095L364.251 392.139L364.273 392.404L365.068 392.36Z" fill="#0F214F"/>
<path d="M345.58 396.336L327.374 397.33L327.263 395.475L345.47 394.481L345.58 396.336Z" fill="#9D7028"/>
<path d="M351.435 396.557L345.757 396.336L345.646 394.481L351.281 393.707L351.435 396.557Z" fill="#462A0F"/>
<path d="M321.585 398.192L327.197 397.353L327.087 395.497L321.43 395.342L321.585 398.192Z" fill="#462A0F"/>
<path d="M345.757 396.336H345.602L345.47 394.481L345.647 394.459L345.757 396.336Z" fill="#7A571F"/>
<path d="M327.374 397.353H327.197L327.087 395.497L327.263 395.475L327.374 397.353Z" fill="#7A571F"/>
<path d="M382.037 386.947L290.365 392.006L290.32 391.476L382.015 386.417L382.037 386.947Z" fill="#0F214F"/>
<path d="M373.045 357.412L374.017 374.864C374.061 375.526 373.509 376.101 372.824 376.145L306.251 379.525C305.544 379.569 304.97 379.039 304.925 378.376L303.953 360.924C303.909 360.261 304.439 359.687 305.146 359.643L371.719 356.263C372.426 356.219 373.022 356.727 373.045 357.412Z" fill="#462A0F"/>
<path d="M307.974 359.488L308.019 360.283C308.085 361.653 306.693 362.846 304.881 362.934C304.594 362.956 304.329 362.934 304.064 362.89L303.953 360.924C303.909 360.261 304.439 359.687 305.146 359.643L307.974 359.488Z" fill="#704318"/>
<path d="M373.045 357.412L373.155 359.378C372.956 359.422 372.735 359.444 372.514 359.466C370.702 359.554 369.156 358.516 369.089 357.146L369.045 356.395L371.697 356.263C372.426 356.219 373.022 356.727 373.045 357.412Z" fill="#704318"/>
<path d="M373.442 364.26L304.329 367.772L304.285 366.999L373.398 363.509L373.442 364.26Z" fill="#0F214F"/>
<path d="M334.798 366.712L330.887 366.911C330.379 366.933 329.981 367.353 330.003 367.861C330.025 368.347 330.467 368.744 330.998 368.7L334.908 368.501C335.417 368.479 335.814 368.059 335.792 367.551C335.748 367.065 335.306 366.69 334.798 366.712Z" fill="#0F214F"/>
<path d="M346.287 366.138L342.376 366.336C341.868 366.358 341.471 366.778 341.493 367.286C341.515 367.772 341.957 368.17 342.487 368.126L346.398 367.927C346.906 367.905 347.304 367.485 347.282 366.977C347.259 366.491 346.818 366.093 346.287 366.138Z" fill="#0F214F"/>
<path d="M342.288 371.02L335.328 371.373C333.538 371.461 332.279 370.534 332.191 369.031L332.124 367.706L333.737 367.618L333.804 368.943C333.848 369.76 334.732 369.849 335.24 369.827L342.2 369.473C342.708 369.451 343.592 369.274 343.548 368.457L343.481 367.132L345.094 367.043L345.16 368.369C345.227 369.871 344.1 370.931 342.288 371.02Z" fill="#0F214F"/>
<path d="M359.103 362.669L356.65 362.802C356.407 362.824 356.208 363.023 356.23 363.244L356.451 367.242C356.473 367.485 356.672 367.662 356.915 367.64L359.368 367.507C359.611 367.485 359.81 367.286 359.788 367.065L359.567 363.067C359.567 362.824 359.346 362.647 359.103 362.669Z" fill="#D9F0F8"/>
<path d="M358.727 366.933L357.512 366.999L357.268 362.758L358.484 362.691L358.727 366.933Z" fill="#0F214F"/>
<path d="M358.638 366.889L357.578 366.933L357.335 362.758L358.417 362.691L358.638 366.889Z" fill="#CED9DF"/>
<path d="M358.152 366.071L357.976 366.093L357.954 365.563L358.13 365.541L358.152 366.071Z" fill="#0F214F"/>
<path d="M319.464 364.68L317.011 364.812C316.768 364.834 316.569 365.033 316.591 365.254L316.812 369.252C316.835 369.495 317.033 369.672 317.276 369.65L319.729 369.517C319.972 369.495 320.171 369.297 320.149 369.076L319.928 365.077C319.928 364.856 319.707 364.657 319.464 364.68Z" fill="#D9F0F8"/>
<path d="M319.088 368.965L317.873 369.01L317.63 364.768L318.845 364.702L319.088 368.965Z" fill="#0F214F"/>
<path d="M319 368.899L317.939 368.943L317.696 364.768L318.779 364.724L319 368.899Z" fill="#CED9DF"/>
<path d="M318.514 368.104H318.337L318.315 367.573L318.492 367.551L318.514 368.104Z" fill="#0F214F"/>
<path d="M327.374 378.443L324.435 378.597L323.331 358.715L326.269 358.56L327.374 378.443Z" fill="#0F214F"/>
<path d="M353.512 377.117L350.574 377.249L349.469 357.389L352.408 357.235L353.512 377.117Z" fill="#0F214F"/>
<path opacity="0.8" d="M120.012 277.759C119.374 272.657 115.029 268.707 109.751 268.707C109.751 260.734 103.27 254.258 95.2923 254.258C90.9964 254.258 87.1424 256.122 84.4913 259.091C83.313 258.796 82.1101 258.625 80.8336 258.625C80.6863 258.625 80.5391 258.625 80.3918 258.625C78.6244 252.565 73.0029 248.125 66.375 248.125C58.2988 248.125 51.7691 254.651 51.7691 262.721C51.7691 262.844 51.7691 262.991 51.7691 263.114C50.8609 262.869 49.9035 262.721 48.9216 262.721C47.6451 262.721 46.4423 262.942 45.3131 263.359C43.4966 260.342 40.2072 258.33 36.4268 258.33C32.8674 258.33 29.7253 260.121 27.8597 262.869C27.2705 262.771 26.6814 262.721 26.0677 262.721C20.3481 262.721 15.7085 267.358 15.7085 273.074C15.7085 273.246 15.7085 273.393 15.7085 273.565C14.3584 273.147 12.9346 272.927 11.4372 272.927C7.11684 272.927 3.26286 274.791 0.587158 277.759H120.012Z" fill="#F1F2F2"/>
</svg>
